<svg width="24" height="24" viewBox="0 0 24 24" fill="none" xmlns="http://www.w3.org/2000/svg">
<path d="M12 5.54145C13.1841 5.54145 14.1528 6.5102 14.1528 7.69423C14.1528 8.87825 13.1841 9.847 12 9.847C10.816 9.847 9.84725 8.87825 9.84725 7.69423C9.84725 6.5102 10.816 5.54145 12 5.54145ZM12 15.2289C14.9063 15.2289 18.2431 16.6175 18.4584 17.3817V18.4581H5.54169V17.3925C5.75697 16.6175 9.09378 15.2289 12 15.2289ZM12 3.38867C9.62121 3.38867 7.69447 5.31541 7.69447 7.69423C7.69447 10.073 9.62121 11.9998 12 11.9998C14.3788 11.9998 16.3056 10.073 16.3056 7.69423C16.3056 5.31541 14.3788 3.38867 12 3.38867ZM12 13.0762C9.12607 13.0762 3.38892 14.5185 3.38892 17.3817V20.6109H20.6111V17.3817C20.6111 14.5185 14.874 13.0762 12 13.0762Z" fill="black"/>
</svg>
