<svg width="41" height="41" viewBox="0 0 41 41" fill="none" xmlns="http://www.w3.org/2000/svg">
<path d="M9.85906 9.5397L5.65393 17.4105C5.12916 18.3956 4.86621 19.4767 4.86621 20.5592C4.86621 21.6419 5.12916 22.7228 5.65393 23.7079L9.85906 31.5789C10.6341 33.0327 12.1499 33.9407 13.7995 33.9407H18.2661V31.711H18.2646C17.4406 31.711 16.6827 31.2577 16.2951 30.5309L12.0916 22.6584C11.7403 22.0022 11.5652 21.2815 11.5652 20.5592C11.5652 19.8369 11.7403 19.1163 12.0916 18.4602L16.2951 10.5878C16.6827 9.86077 17.4406 9.40758 18.2646 9.40758H18.2661V7.17773H13.7995C12.1499 7.17773 10.6341 8.08589 9.85906 9.5397Z" fill="black"/>
<path d="M35.3426 17.4106L31.1376 9.53976C30.3624 8.08579 28.8467 7.17779 27.1972 7.17779H22.7304V9.40747H22.732C23.5561 9.40747 24.314 9.86082 24.7014 10.5876L28.9049 18.4601C29.2564 19.1163 29.4312 19.837 29.4312 20.5593C29.4312 21.2816 29.2564 22.0022 28.9049 22.6585L24.7014 30.5307C24.314 31.2577 23.5561 31.7109 22.732 31.7109H22.7304V33.9408H27.1972C28.8467 33.9408 30.3624 33.0328 31.1376 31.5788L35.3426 23.708C35.8672 22.7229 36.1303 21.6418 36.1303 20.5593C36.1303 19.4767 35.8672 18.3957 35.3426 17.4106Z" fill="black"/>
</svg>
